<svg xmlns="http://www.w3.org/2000/svg" viewBox="0 0 24 24" fill="currentColor">
  <path d="M13.483 0a1.374 1.374 0 0 0-.961.438L7.116 6.226l-3.854 4.126a1.653 1.653 0 0 0-.215.325c-.465.943-.444 1.99.053 2.91l2.4 4.05c.266.45.648.8 1.1 1.02l4.1 1.8c.9.4 1.9.4 2.8 0l4.1-1.8c.45-.2.83-.57 1.1-1.02l2.4-4.05c.5-.92.52-1.97.05-2.91a1.65 1.65 0 0 0-.21-.325l-3.85-4.126L11.48.438A1.374 1.374 0 0 0 10.517 0h2.966zm-2.966 1.5h2.966l4.1 4.4-3.85 4.126a1.65 1.65 0 0 0-.21.325c-.47.94-.45 1.99.05 2.91l2.4 4.05c.27.45.65.8 1.1 1.02l4.1 1.8c.9.4 1.9.4 2.8 0l4.1-1.8c.45-.2.83-.57 1.1-1.02l2.4-4.05c.5-.92.52-1.97.05-2.91a1.65 1.65 0 0 0-.21-.325l-3.85-4.126 4.1-4.4h-2.966l-4.1 4.4 3.85 4.126c.13.14.2.3.21.325.47.94.45 1.99-.05 2.91l-2.4 4.05c-.27.45-.65.8-1.1 1.02l-4.1 1.8c-.9.4-1.9.4-2.8 0l-4.1-1.8c-.45-.2-.83-.57-1.1-1.02l-2.4-4.05c-.5-.92-.52-1.97-.05-2.91.01-.03.08-.18.21-.325l3.85-4.126-4.1-4.4z"/>
</svg> 